<svg width="86" height="13" fill="none" xmlns="http://www.w3.org/2000/svg"><path fill="#ED1C24" d="M0 0h85.222v13H0z"/><path d="M5.056 5.296h2.407V2.89H5.056v2.407zM6.8 4.631H5.718V3.554h1.075V4.63h.008z" fill="#fff"/><path d="M11.563 2.889H8.481v3.425H5.056V10.111H12.278V2.89h-.715zm-5.8 6.508V7.029h2.718v2.368H5.763zm5.8 0H9.196V7.029h2.367v2.368zM9.196 6.314V3.596h2.367v2.718H9.196zM15.588 10.111V2.89h.903v7.222h-.903zM24.616 10.111h-.972l-3.951-6.058s-.008 1.36-.008 1.956v4.102h-.787V2.89h.958l3.958 6.037s-.014-1.683-.007-1.893V2.889h.794v7.222h.015zM29.25 10.111h-.842V3.632H26.12V2.89h5.417v.743H29.25v6.48zM37.255 10.111h-3.912V2.89h3.912v.743H34.16V5.96h2.91v.743h-2.91v2.658h3.095v.75zM40.207 7.103v3.001h-.846V2.89h1.987c.888 0 1.55.168 1.973.512.423.336.642.848.642 1.528 0 .954-.487 1.599-1.459 1.936l1.973 3.246h-1L41.721 7.11h-1.515v-.007zm0-.722h1.155c.6 0 1.036-.12 1.311-.35.275-.24.416-.59.416-1.06 0-.476-.141-.82-.423-1.03-.282-.21-.74-.316-1.36-.316h-1.1v2.756zM50.193 2.889h.904l-2.602 7.222h-.828L45.08 2.89h.89l1.656 4.67c.19.54.344 1.059.456 1.563.12-.532.274-1.065.463-1.598l1.649-4.635zM58.921 6.5c0 1.124-.288 2.01-.871 2.649-.584.646-1.39.962-2.428.962-1.06 0-1.88-.316-2.457-.948-.576-.633-.864-1.525-.864-2.677 0-1.145.288-2.03.864-2.656.577-.632 1.398-.941 2.464-.941 1.038 0 1.844.323 2.42.962.577.64.872 1.525.872 2.649zm-5.806 0c0 .977.216 1.721.641 2.227.425.506 1.045.759 1.859.759.82 0 1.44-.253 1.858-.759.418-.506.627-1.243.627-2.227 0-.97-.209-1.707-.627-2.213-.417-.499-1.037-.752-1.851-.752-.821 0-1.448.253-1.873.759-.425.506-.634 1.244-.634 2.206zM61.028 10.111V2.89h.818v6.458h3.094v.757h-3.912v.007zM69.826 6.331h2.336v3.422a6.86 6.86 0 0 1-1.106.267 8 8 0 0 1-1.306.091c-1.038 0-1.849-.316-2.433-.948-.577-.633-.872-1.518-.872-2.663 0-.73.144-1.37.433-1.918.288-.548.7-.97 1.237-1.258.535-.288 1.168-.435 1.896-.435.736 0 1.416.14 2.048.414l-.31.724c-.618-.267-1.215-.4-1.793-.4-.838 0-1.491.252-1.958.765-.468.513-.708 1.216-.708 2.122 0 .948.227 1.665.68 2.157.454.492 1.12.738 1.993.738.474 0 .942-.057 1.395-.17V7.063h-1.54v-.73h.008zM79.131 10.111l-.89-2.284h-2.857l-.876 2.284h-.841l2.815-7.222h.695l2.81 7.222h-.856zm-1.147-3.04-.827-2.228c-.105-.28-.216-.63-.334-1.036a9.21 9.21 0 0 1-.306 1.036l-.841 2.228h2.308z" fill="#fff"/></svg>