<svg width="101" height="25" viewBox="0 0 101 25" fill="none" xmlns="http://www.w3.org/2000/svg">
<path d="M5.71165 19.2397C4.64039 19.2397 3.68158 18.9645 2.83523 18.4141C1.98887 17.8636 1.32008 17.0646 0.828835 16.017C0.337595 14.9695 0.0919745 13.697 0.0919745 12.1996C0.0919745 10.6844 0.340554 9.40601 0.837713 8.36435C1.34079 7.31676 2.01847 6.52663 2.87074 5.99396C3.72301 5.45537 4.67294 5.18608 5.72053 5.18608C6.51953 5.18608 7.17649 5.32221 7.69141 5.59446C8.20632 5.86079 8.6147 6.18336 8.91655 6.56214C9.2184 6.93501 9.45218 7.28717 9.6179 7.61861H9.75107V0.818181H12.9737V19H9.81321V16.8516H9.6179C9.45218 17.183 9.21248 17.5352 8.89879 17.908C8.58511 18.275 8.17081 18.5887 7.6559 18.8491C7.14098 19.1095 6.4929 19.2397 5.71165 19.2397ZM6.60831 16.603C7.28894 16.603 7.86896 16.4195 8.34837 16.0526C8.82777 15.6797 9.19176 15.1618 9.44034 14.4989C9.68892 13.8361 9.81321 13.0637 9.81321 12.1818C9.81321 11.3 9.68892 10.5335 9.44034 9.88246C9.19768 9.23142 8.83665 8.72538 8.35724 8.36435C7.88376 8.00331 7.30078 7.8228 6.60831 7.8228C5.89216 7.8228 5.29439 8.00923 4.81499 8.3821C4.33558 8.75497 3.97455 9.26989 3.73189 9.92685C3.48923 10.5838 3.3679 11.3355 3.3679 12.1818C3.3679 13.0341 3.48923 13.7946 3.73189 14.4634C3.98047 15.1263 4.34446 15.6501 4.82386 16.0348C5.30919 16.4136 5.904 16.603 6.60831 16.603ZM28.5787 5.36364L23.7226 19H20.1714L15.3153 5.36364H18.7421L21.876 15.4933H22.018L25.1608 5.36364H28.5787Z" fill="#00ED5F"/>
<path d="M36.8396 19.2663C35.4724 19.2663 34.2916 18.9822 33.2973 18.4141C32.3089 17.84 31.5484 17.0291 31.0157 15.9815C30.483 14.928 30.2167 13.6881 30.2167 12.2617C30.2167 10.859 30.483 9.62796 31.0157 8.56854C31.5543 7.5032 32.306 6.6746 33.2707 6.08274C34.2354 5.48497 35.3688 5.18608 36.6709 5.18608C37.5113 5.18608 38.3044 5.32221 39.0502 5.59446C39.8018 5.86079 40.4647 6.27509 41.0388 6.83736C41.6188 7.39962 42.0745 8.11577 42.406 8.9858C42.7374 9.84991 42.9031 10.8797 42.9031 12.0753V13.0607H31.7259V10.8945H39.8225C39.8166 10.279 39.6834 9.73153 39.423 9.25213C39.1626 8.76681 38.7986 8.38506 38.3311 8.10689C37.8694 7.82872 37.3308 7.68963 36.7153 7.68963C36.0583 7.68963 35.4813 7.84943 34.9841 8.16903C34.4869 8.48272 34.0993 8.89702 33.8211 9.41193C33.5489 9.92093 33.4098 10.4802 33.4039 11.0898V12.9808C33.4039 13.7739 33.5489 14.4545 33.8389 15.0227C34.1289 15.585 34.5343 16.017 35.0551 16.3189C35.576 16.6148 36.1856 16.7628 36.884 16.7628C37.3515 16.7628 37.7747 16.6977 38.1535 16.5675C38.5323 16.4313 38.8608 16.2331 39.1389 15.9727C39.4171 15.7122 39.6272 15.3897 39.7693 15.005L42.77 15.3423C42.5806 16.1354 42.2195 16.8279 41.6869 17.4197C41.1601 18.0057 40.4854 18.4614 39.6627 18.7869C38.8401 19.1065 37.899 19.2663 36.8396 19.2663ZM51.5524 24.3977C50.3983 24.3977 49.4069 24.2409 48.5783 23.9272C47.7497 23.6194 47.0839 23.2051 46.5808 22.6843C46.0777 22.1635 45.7285 21.5864 45.5332 20.9531L48.4274 20.2518C48.5576 20.5181 48.747 20.7815 48.9956 21.0419C49.2441 21.3082 49.5785 21.5272 49.9988 21.6989C50.4249 21.8764 50.9605 21.9652 51.6056 21.9652C52.5171 21.9652 53.2717 21.7433 53.8695 21.2994C54.4673 20.8614 54.7662 20.1393 54.7662 19.1332V16.5497H54.6064C54.4406 16.8812 54.198 17.2215 53.8784 17.5707C53.5647 17.9199 53.1474 18.2128 52.6266 18.4496C52.1117 18.6863 51.4636 18.8047 50.6824 18.8047C49.6348 18.8047 48.6848 18.5591 47.8326 18.0678C46.9862 17.5707 46.3115 16.8308 45.8084 15.8484C45.3113 14.86 45.0627 13.623 45.0627 12.1374C45.0627 10.64 45.3113 9.37642 45.8084 8.34659C46.3115 7.31084 46.9892 6.52663 47.8414 5.99396C48.6937 5.45537 49.6436 5.18608 50.6912 5.18608C51.4902 5.18608 52.1472 5.32221 52.6621 5.59446C53.1829 5.86079 53.5972 6.18336 53.905 6.56214C54.2128 6.93501 54.4466 7.28717 54.6064 7.61861H54.7839V5.36364H57.9533V19.2219C57.9533 20.3879 57.6751 21.3526 57.1188 22.1161C56.5624 22.8796 55.8019 23.4508 54.8372 23.8295C53.8725 24.2083 52.7775 24.3977 51.5524 24.3977ZM51.579 16.2834C52.2596 16.2834 52.8397 16.1177 53.3191 15.7862C53.7985 15.4548 54.1625 14.9783 54.411 14.3569C54.6596 13.7354 54.7839 12.9897 54.7839 12.1197C54.7839 11.2615 54.6596 10.5098 54.411 9.8647C54.1684 9.21958 53.8074 8.71946 53.3279 8.36435C52.8545 8.00331 52.2715 7.8228 51.579 7.8228C50.8629 7.8228 50.2651 8.00923 49.7857 8.3821C49.3063 8.75497 48.9453 9.26693 48.7026 9.91797C48.4599 10.5631 48.3386 11.297 48.3386 12.1197C48.3386 12.9542 48.4599 13.6851 48.7026 14.3125C48.9512 14.9339 49.3152 15.4193 49.7946 15.7685C50.2799 16.1117 50.8747 16.2834 51.579 16.2834ZM65.171 19.2752C64.3069 19.2752 63.5286 19.1213 62.8361 18.8136C62.1496 18.4999 61.6051 18.0382 61.2026 17.4286C60.806 16.819 60.6078 16.0674 60.6078 15.1737C60.6078 14.4042 60.7498 13.768 61.0339 13.2649C61.318 12.7618 61.7057 12.3594 62.1969 12.0575C62.6882 11.7557 63.2415 11.5278 63.8571 11.3739C64.4785 11.2141 65.1207 11.0987 65.7836 11.0277C66.5826 10.9448 67.2306 10.8709 67.7278 10.8058C68.225 10.7347 68.586 10.6282 68.8109 10.4862C69.0417 10.3382 69.1571 10.1103 69.1571 9.80256V9.74929C69.1571 9.08049 68.9589 8.56262 68.5623 8.19567C68.1658 7.82872 67.5946 7.64524 66.8489 7.64524C66.0617 7.64524 65.4373 7.81688 64.9757 8.16016C64.5199 8.50343 64.2122 8.90885 64.0524 9.37642L61.0517 8.95028C61.2884 8.12169 61.679 7.42921 62.2235 6.87287C62.7681 6.31061 63.4339 5.89039 64.2211 5.61222C65.0082 5.32812 65.8783 5.18608 66.8311 5.18608C67.4881 5.18608 68.1421 5.26302 68.7931 5.4169C69.4442 5.57079 70.039 5.82528 70.5776 6.1804C71.1162 6.52959 71.5482 7.00604 71.8738 7.60973C72.2052 8.21342 72.3709 8.96804 72.3709 9.87358V19H69.2814V17.1268H69.1749C68.9796 17.5056 68.7044 17.8607 68.3493 18.1921C68.0001 18.5176 67.5591 18.781 67.0265 18.9822C66.4997 19.1776 65.8812 19.2752 65.171 19.2752ZM66.0055 16.9137C66.6506 16.9137 67.2099 16.7865 67.6834 16.532C68.1569 16.2715 68.5209 15.9283 68.7754 15.5021C69.0358 15.076 69.166 14.6114 69.166 14.1083V12.5014C69.0654 12.5843 68.8938 12.6612 68.6511 12.7322C68.4144 12.8033 68.148 12.8654 67.8521 12.9187C67.5562 12.9719 67.2632 13.0193 66.9732 13.0607C66.6832 13.1022 66.4316 13.1377 66.2186 13.1673C65.7392 13.2324 65.3101 13.3389 64.9313 13.4869C64.5525 13.6348 64.2536 13.842 64.0346 14.1083C63.8156 14.3687 63.7061 14.7061 63.7061 15.1204C63.7061 15.7122 63.9222 16.1591 64.3542 16.4609C64.7863 16.7628 65.3367 16.9137 66.0055 16.9137ZM86.3801 8.96804L83.4505 9.28764C83.3676 8.99171 83.2226 8.71354 83.0154 8.45312C82.8142 8.19271 82.542 7.9826 82.1987 7.8228C81.8554 7.663 81.4352 7.5831 80.938 7.5831C80.2692 7.5831 79.707 7.7281 79.2512 8.01811C78.8014 8.30812 78.5795 8.68395 78.5854 9.1456C78.5795 9.54214 78.7245 9.8647 79.0204 10.1133C79.3223 10.3619 79.8194 10.5661 80.5119 10.7259L82.8379 11.223C84.1281 11.5012 85.0869 11.9421 85.7143 12.5458C86.3476 13.1495 86.6672 13.9396 86.6731 14.9162C86.6672 15.7744 86.4157 16.532 85.9185 17.1889C85.4273 17.84 84.7437 18.349 83.8677 18.7159C82.9918 19.0829 81.9856 19.2663 80.8493 19.2663C79.1802 19.2663 77.8367 18.9171 76.8187 18.2188C75.8007 17.5144 75.1941 16.5349 74.9988 15.2802L78.1326 14.9783C78.2747 15.5939 78.5765 16.0585 79.0382 16.3722C79.4998 16.6858 80.1006 16.8427 80.8404 16.8427C81.6039 16.8427 82.2164 16.6858 82.6781 16.3722C83.1457 16.0585 83.3794 15.6708 83.3794 15.2092C83.3794 14.8185 83.2285 14.496 82.9267 14.2415C82.6307 13.987 82.1691 13.7917 81.5417 13.6555L79.2157 13.1673C77.9077 12.895 76.94 12.4363 76.3127 11.7912C75.6853 11.1402 75.3746 10.3175 75.3805 9.32315C75.3746 8.48272 75.6025 7.75473 76.0641 7.1392C76.5317 6.51776 77.1797 6.03835 78.0083 5.70099C78.8429 5.35772 79.8046 5.18608 80.8936 5.18608C82.4917 5.18608 83.7493 5.5264 84.6667 6.20703C85.59 6.88767 86.1612 7.808 86.3801 8.96804ZM93.2472 19.2752C92.383 19.2752 91.6048 19.1213 90.9123 18.8136C90.2257 18.4999 89.6812 18.0382 89.2788 17.4286C88.8822 16.819 88.6839 16.0674 88.6839 15.1737C88.6839 14.4042 88.826 13.768 89.1101 13.2649C89.3942 12.7618 89.7818 12.3594 90.2731 12.0575C90.7643 11.7557 91.3177 11.5278 91.9332 11.3739C92.5547 11.2141 93.1969 11.0987 93.8597 11.0277C94.6587 10.9448 95.3068 10.8709 95.804 10.8058C96.3011 10.7347 96.6622 10.6282 96.8871 10.4862C97.1179 10.3382 97.2333 10.1103 97.2333 9.80256V9.74929C97.2333 9.08049 97.035 8.56262 96.6385 8.19567C96.242 7.82872 95.6708 7.64524 94.9251 7.64524C94.1379 7.64524 93.5135 7.81688 93.0518 8.16016C92.5961 8.50343 92.2884 8.90885 92.1286 9.37642L89.1278 8.95028C89.3646 8.12169 89.7552 7.42921 90.2997 6.87287C90.8442 6.31061 91.5101 5.89039 92.2972 5.61222C93.0844 5.32812 93.9544 5.18608 94.9073 5.18608C95.5643 5.18608 96.2183 5.26302 96.8693 5.4169C97.5204 5.57079 98.1152 5.82528 98.6538 6.1804C99.1924 6.52959 99.6244 7.00604 99.9499 7.60973C100.281 8.21342 100.447 8.96804 100.447 9.87358V19H97.3576V17.1268H97.2511C97.0558 17.5056 96.7805 17.8607 96.4254 18.1921C96.0762 18.5176 95.6353 18.781 95.1026 18.9822C94.5759 19.1776 93.9574 19.2752 93.2472 19.2752ZM94.0817 16.9137C94.7268 16.9137 95.2861 16.7865 95.7596 16.532C96.2331 16.2715 96.5971 15.9283 96.8516 15.5021C97.112 15.076 97.2422 14.6114 97.2422 14.1083V12.5014C97.1416 12.5843 96.9699 12.6612 96.7273 12.7322C96.4905 12.8033 96.2242 12.8654 95.9283 12.9187C95.6323 12.9719 95.3394 13.0193 95.0494 13.0607C94.7594 13.1022 94.5078 13.1377 94.2947 13.1673C93.8153 13.2324 93.3862 13.3389 93.0075 13.4869C92.6287 13.6348 92.3298 13.842 92.1108 14.1083C91.8918 14.3687 91.7823 14.7061 91.7823 15.1204C91.7823 15.7122 91.9983 16.1591 92.4304 16.4609C92.8625 16.7628 93.4129 16.9137 94.0817 16.9137Z" fill="#F5F5F5"/>
</svg>
